# Tiled2Unity generated file. Do not modify by hand.
# Wavefront file for 'untitled_mesh_0003.obj'

# Vertices (Count = 292)
v -304 -16 0
v -320 -16 0
v -320 0 0
v -304 0 0
v -160 -16 0
v -176 -16 0
v -176 0 0
v -160 0 0
v -144 -16 0
v -160 -16 0
v -160 0 0
v -144 0 0
v -304 -32 0
v -320 -32 0
v -320 -16 0
v -304 -16 0
v -304 -48 0
v -320 -48 0
v -320 -32 0
v -304 -32 0
v -192 -80 0
v -208 -80 0
v -208 -64 0
v -192 -64 0
v -176 -80 0
v -192 -80 0
v -192 -64 0
v -176 -64 0
v -160 -80 0
v -176 -80 0
v -176 -64 0
v -160 -64 0
v -144 -80 0
v -160 -80 0
v -160 -64 0
v -144 -64 0
v -128 -80 0
v -144 -80 0
v -144 -64 0
v -128 -64 0
v -112 -80 0
v -128 -80 0
v -128 -64 0
v -112 -64 0
v -96 -80 0
v -112 -80 0
v -112 -64 0
v -96 -64 0
v -80 -80 0
v -96 -80 0
v -96 -64 0
v -80 -64 0
v -288 -96 0
v -304 -96 0
v -304 -80 0
v -288 -80 0
v -272 -96 0
v -288 -96 0
v -288 -80 0
v -272 -80 0
v -256 -96 0
v -272 -96 0
v -272 -80 0
v -256 -80 0
v -192 -96 0
v -208 -96 0
v -208 -80 0
v -192 -80 0
v -176 -96 0
v -192 -96 0
v -192 -80 0
v -176 -80 0
v -160 -96 0
v -176 -96 0
v -176 -80 0
v -160 -80 0
v -144 -96 0
v -160 -96 0
v -160 -80 0
v -144 -80 0
v -128 -96 0
v -144 -96 0
v -144 -80 0
v -128 -80 0
v -112 -96 0
v -128 -96 0
v -128 -80 0
v -112 -80 0
v -96 -96 0
v -112 -96 0
v -112 -80 0
v -96 -80 0
v -80 -96 0
v -96 -96 0
v -96 -80 0
v -80 -80 0
v -288 -112 0
v -304 -112 0
v -304 -96 0
v -288 -96 0
v -272 -112 0
v -288 -112 0
v -288 -96 0
v -272 -96 0
v -256 -112 0
v -272 -112 0
v -272 -96 0
v -256 -96 0
v -192 -112 0
v -208 -112 0
v -208 -96 0
v -192 -96 0
v -176 -112 0
v -192 -112 0
v -192 -96 0
v -176 -96 0
v -160 -112 0
v -176 -112 0
v -176 -96 0
v -160 -96 0
v -144 -112 0
v -160 -112 0
v -160 -96 0
v -144 -96 0
v -128 -112 0
v -144 -112 0
v -144 -96 0
v -128 -96 0
v -112 -112 0
v -128 -112 0
v -128 -96 0
v -112 -96 0
v -96 -112 0
v -112 -112 0
v -112 -96 0
v -96 -96 0
v -80 -112 0
v -96 -112 0
v -96 -96 0
v -80 -96 0
v -224 -128 0
v -240 -128 0
v -240 -112 0
v -224 -112 0
v -320 -144 0
v -336 -144 0
v -336 -128 0
v -320 -128 0
v -304 -144 0
v -320 -144 0
v -320 -128 0
v -304 -128 0
v -288 -144 0
v -304 -144 0
v -304 -128 0
v -288 -128 0
v -272 -144 0
v -288 -144 0
v -288 -128 0
v -272 -128 0
v -256 -144 0
v -272 -144 0
v -272 -128 0
v -256 -128 0
v -240 -144 0
v -256 -144 0
v -256 -128 0
v -240 -128 0
v -224 -144 0
v -240 -144 0
v -240 -128 0
v -224 -128 0
v -208 -144 0
v -224 -144 0
v -224 -128 0
v -208 -128 0
v -192 -144 0
v -208 -144 0
v -208 -128 0
v -192 -128 0
v -176 -144 0
v -192 -144 0
v -192 -128 0
v -176 -128 0
v -160 -144 0
v -176 -144 0
v -176 -128 0
v -160 -128 0
v -144 -144 0
v -160 -144 0
v -160 -128 0
v -144 -128 0
v -128 -144 0
v -144 -144 0
v -144 -128 0
v -128 -128 0
v -112 -144 0
v -128 -144 0
v -128 -128 0
v -112 -128 0
v -96 -144 0
v -112 -144 0
v -112 -128 0
v -96 -128 0
v -80 -144 0
v -96 -144 0
v -96 -128 0
v -80 -128 0
v -160 -160 0
v -176 -160 0
v -176 -144 0
v -160 -144 0
v -160 -176 0
v -176 -176 0
v -176 -160 0
v -160 -160 0
v -160 -192 0
v -176 -192 0
v -176 -176 0
v -160 -176 0
v -160 -208 0
v -176 -208 0
v -176 -192 0
v -160 -192 0
v -176 -224 0
v -192 -224 0
v -192 -208 0
v -176 -208 0
v -160 -224 0
v -176 -224 0
v -176 -208 0
v -160 -208 0
v -160 -240 0
v -176 -240 0
v -176 -224 0
v -160 -224 0
v -96 -304 0
v -112 -304 0
v -112 -288 0
v -96 -288 0
v -16 -304 0
v -32 -304 0
v -32 -288 0
v -16 -288 0
v -96 -320 0
v -112 -320 0
v -112 -304 0
v -96 -304 0
v -16 -320 0
v -32 -320 0
v -32 -304 0
v -16 -304 0
v -288 -336 0
v -304 -336 0
v -304 -320 0
v -288 -320 0
v -96 -336 0
v -112 -336 0
v -112 -320 0
v -96 -320 0
v -96 -352 0
v -112 -352 0
v -112 -336 0
v -96 -336 0
v -96 -368 0
v -112 -368 0
v -112 -352 0
v -96 -352 0
v -368 -384 0
v -384 -384 0
v -384 -368 0
v -368 -368 0
v -352 -384 0
v -368 -384 0
v -368 -368 0
v -352 -368 0
v -336 -384 0
v -352 -384 0
v -352 -368 0
v -336 -368 0
v -368 -400 0
v -384 -400 0
v -384 -384 0
v -368 -384 0
v -352 -400 0
v -368 -400 0
v -368 -384 0
v -352 -384 0
v -336 -400 0
v -352 -400 0
v -352 -384 0
v -336 -384 0

# Texture cooridinates (Count = 64)
vt 0.225 0.76
vt 0.25 0.76
vt 0.25 0.8
vt 0.225 0.8
vt 0.375 0.96
vt 0.4 0.96
vt 0.4 1
vt 0.375 1
vt 0.35 0.96
vt 0.35 1
vt 0.2 0.48
vt 0.225 0.48
vt 0.225 0.52
vt 0.2 0.52
vt 0.2 0.44
vt 0.225 0.44
vt 0.05 0.68
vt 0.075 0.68
vt 0.075 0.72
vt 0.05 0.72
vt 0.025 0.68
vt 0.025 0.72
vt 0 0.68
vt 0 0.72
vt 0.05 0.64
vt 0.075 0.64
vt 0.025 0.64
vt 0 0.64
vt 0.05 0.6
vt 0.075 0.6
vt 0.025 0.6
vt 0 0.6
vt 0.175 0.96
vt 0.2 0.96
vt 0.2 1
vt 0.175 1
vt 0.175 0.92
vt 0.2 0.92
vt 0.225 0.92
vt 0.225 0.96
vt 0.15 0.92
vt 0.15 0.96
vt 0.15 1
vt 0.225 1
vt 0.225 0.64
vt 0.25 0.64
vt 0.25 0.68
vt 0.225 0.68
vt 0.275 0.56
vt 0.3 0.56
vt 0.3 0.6
vt 0.275 0.6
vt 0.2 0.64
vt 0.2 0.68
vt 0.275 0.52
vt 0.3 0.52
vt 0.425 0.8
vt 0.45 0.8
vt 0.45 0.84
vt 0.425 0.84
vt 0.425 0.76
vt 0.45 0.76
vt 0.425 0.72
vt 0.45 0.72

# Normal
vn 0 0 -1

# Mesh description
g untitled_mesh_0003

# Faces
f 1/1/1 2/2/1 3/3/1 4/4/1
f 5/5/1 6/6/1 7/7/1 8/8/1
f 9/9/1 10/5/1 11/8/1 12/10/1
f 13/11/1 14/12/1 15/13/1 16/14/1
f 17/15/1 18/16/1 19/12/1 20/11/1
f 21/17/1 22/18/1 23/19/1 24/20/1
f 25/21/1 26/17/1 27/20/1 28/22/1
f 29/21/1 30/17/1 31/20/1 32/22/1
f 33/21/1 34/17/1 35/20/1 36/22/1
f 37/21/1 38/17/1 39/20/1 40/22/1
f 41/21/1 42/17/1 43/20/1 44/22/1
f 45/21/1 46/17/1 47/20/1 48/22/1
f 49/23/1 50/21/1 51/22/1 52/24/1
f 53/17/1 54/18/1 55/19/1 56/20/1
f 57/21/1 58/17/1 59/20/1 60/22/1
f 61/23/1 62/21/1 63/22/1 64/24/1
f 65/25/1 66/26/1 67/18/1 68/17/1
f 69/27/1 70/25/1 71/17/1 72/21/1
f 73/27/1 74/25/1 75/17/1 76/21/1
f 77/27/1 78/25/1 79/17/1 80/21/1
f 81/27/1 82/25/1 83/17/1 84/21/1
f 85/27/1 86/25/1 87/17/1 88/21/1
f 89/27/1 90/25/1 91/17/1 92/21/1
f 93/28/1 94/27/1 95/21/1 96/23/1
f 97/29/1 98/30/1 99/26/1 100/25/1
f 101/31/1 102/29/1 103/25/1 104/27/1
f 105/32/1 106/31/1 107/27/1 108/28/1
f 109/29/1 110/30/1 111/26/1 112/25/1
f 113/31/1 114/29/1 115/25/1 116/27/1
f 117/31/1 118/29/1 119/25/1 120/27/1
f 121/31/1 122/29/1 123/25/1 124/27/1
f 125/31/1 126/29/1 127/25/1 128/27/1
f 129/31/1 130/29/1 131/25/1 132/27/1
f 133/31/1 134/29/1 135/25/1 136/27/1
f 137/32/1 138/31/1 139/27/1 140/28/1
f 141/33/1 142/34/1 143/35/1 144/36/1
f 145/37/1 146/38/1 147/34/1 148/33/1
f 149/38/1 150/39/1 151/40/1 152/34/1
f 153/38/1 154/39/1 155/40/1 156/34/1
f 157/38/1 158/39/1 159/40/1 160/34/1
f 161/38/1 162/39/1 163/40/1 164/34/1
f 165/38/1 166/39/1 167/40/1 168/34/1
f 169/38/1 170/39/1 171/40/1 172/34/1
f 173/38/1 174/39/1 175/40/1 176/34/1
f 177/38/1 178/39/1 179/40/1 180/34/1
f 181/38/1 182/39/1 183/40/1 184/34/1
f 185/38/1 186/39/1 187/40/1 188/34/1
f 189/38/1 190/39/1 191/40/1 192/34/1
f 193/38/1 194/39/1 195/40/1 196/34/1
f 197/38/1 198/39/1 199/40/1 200/34/1
f 201/38/1 202/39/1 203/40/1 204/34/1
f 205/41/1 206/37/1 207/33/1 208/42/1
f 209/42/1 210/33/1 211/36/1 212/43/1
f 213/34/1 214/40/1 215/44/1 216/35/1
f 217/34/1 218/40/1 219/44/1 220/35/1
f 221/34/1 222/40/1 223/44/1 224/35/1
f 225/41/1 226/37/1 227/33/1 228/42/1
f 229/34/1 230/40/1 231/44/1 232/35/1
f 233/33/1 234/34/1 235/35/1 236/36/1
f 237/45/1 238/46/1 239/47/1 240/48/1
f 241/49/1 242/50/1 243/51/1 244/52/1
f 245/53/1 246/45/1 247/48/1 248/54/1
f 249/55/1 250/56/1 251/50/1 252/49/1
f 253/55/1 254/56/1 255/50/1 256/49/1
f 257/57/1 258/58/1 259/59/1 260/60/1
f 261/61/1 262/62/1 263/58/1 264/57/1
f 265/63/1 266/64/1 267/62/1 268/61/1
f 269/17/1 270/18/1 271/19/1 272/20/1
f 273/21/1 274/17/1 275/20/1 276/22/1
f 277/23/1 278/21/1 279/22/1 280/24/1
f 281/29/1 282/30/1 283/26/1 284/25/1
f 285/31/1 286/29/1 287/25/1 288/27/1
f 289/32/1 290/31/1 291/27/1 292/28/1

